<svg width="117" height="13" viewBox="0 0 117 13" fill="none" xmlns="http://www.w3.org/2000/svg">
<path opacity="0.8" d="M6.152 6.288C6.74933 6.39467 7.256 6.70933 7.672 7.232C8.088 7.75467 8.296 8.34667 8.296 9.008C8.296 9.57333 8.14667 10.0853 7.848 10.544C7.56 10.992 7.13867 11.3493 6.584 11.616C6.02933 11.872 5.384 12 4.648 12H0.2V0.879999H4.44C5.19733 0.879999 5.848 1.008 6.392 1.264C6.936 1.52 7.34667 1.86667 7.624 2.304C7.90133 2.73067 8.04 3.21067 8.04 3.744C8.04 4.384 7.86933 4.91733 7.528 5.344C7.18667 5.77067 6.728 6.08533 6.152 6.288ZM2.024 5.552H4.28C4.87733 5.552 5.34133 5.41867 5.672 5.152C6.01333 4.87467 6.184 4.48 6.184 3.968C6.184 3.46667 6.01333 3.07733 5.672 2.8C5.34133 2.512 4.87733 2.368 4.28 2.368H2.024V5.552ZM4.488 10.512C5.10667 10.512 5.592 10.3627 5.944 10.064C6.296 9.76533 6.472 9.34933 6.472 8.816C6.472 8.272 6.28533 7.84 5.912 7.52C5.53867 7.2 5.04267 7.04 4.424 7.04H2.024V10.512H4.488ZM18.2621 3.184V12H16.4381V10.96C16.1501 11.3227 15.7715 11.6107 15.3021 11.824C14.8435 12.0267 14.3528 12.128 13.8301 12.128C13.1368 12.128 12.5128 11.984 11.9581 11.696C11.4141 11.408 10.9821 10.9813 10.6621 10.416C10.3528 9.85067 10.1981 9.168 10.1981 8.368V3.184H12.0061V8.096C12.0061 8.88533 12.2035 9.49333 12.5981 9.92C12.9928 10.336 13.5315 10.544 14.2141 10.544C14.8968 10.544 15.4355 10.336 15.8301 9.92C16.2355 9.49333 16.4381 8.88533 16.4381 8.096V3.184H18.2621ZM22.4928 0.16V12H20.6688V0.16H22.4928ZM28.3755 7.6L32.4395 12H29.9755L26.7115 8.208V12H24.8875V0.16H26.7115V7.04L29.9115 3.184H32.4395L28.3755 7.6ZM37.2951 7.552C37.2951 6.66667 37.4765 5.88267 37.8391 5.2C38.2125 4.51733 38.7138 3.98933 39.3431 3.616C39.9831 3.232 40.6925 3.04 41.4711 3.04C42.0471 3.04 42.6125 3.168 43.1671 3.424C43.7325 3.66933 44.1805 4 44.5111 4.416V0.16H46.3511V12H44.5111V10.672C44.2125 11.0987 43.7965 11.4507 43.2631 11.728C42.7405 12.0053 42.1378 12.144 41.4551 12.144C40.6871 12.144 39.9831 11.952 39.3431 11.568C38.7138 11.1733 38.2125 10.6293 37.8391 9.936C37.4765 9.232 37.2951 8.43733 37.2951 7.552ZM44.5111 7.584C44.5111 6.976 44.3831 6.448 44.1271 6C43.8818 5.552 43.5565 5.21067 43.1511 4.976C42.7458 4.74133 42.3085 4.624 41.8391 4.624C41.3698 4.624 40.9325 4.74133 40.5271 4.976C40.1218 5.2 39.7911 5.536 39.5351 5.984C39.2898 6.42133 39.1671 6.944 39.1671 7.552C39.1671 8.16 39.2898 8.69333 39.5351 9.152C39.7911 9.61067 40.1218 9.96267 40.5271 10.208C40.9431 10.4427 41.3805 10.56 41.8391 10.56C42.3085 10.56 42.7458 10.4427 43.1511 10.208C43.5565 9.97333 43.8818 9.632 44.1271 9.184C44.3831 8.72533 44.5111 8.192 44.5111 7.584ZM52.5709 12.144C51.7389 12.144 50.9869 11.9573 50.3149 11.584C49.6429 11.2 49.1149 10.6667 48.7309 9.984C48.3469 9.29067 48.1549 8.49067 48.1549 7.584C48.1549 6.688 48.3522 5.89333 48.7469 5.2C49.1415 4.50667 49.6802 3.97333 50.3629 3.6C51.0455 3.22667 51.8082 3.04 52.6509 3.04C53.4935 3.04 54.2562 3.22667 54.9389 3.6C55.6215 3.97333 56.1602 4.50667 56.5549 5.2C56.9495 5.89333 57.1469 6.688 57.1469 7.584C57.1469 8.48 56.9442 9.27467 56.5389 9.968C56.1335 10.6613 55.5789 11.2 54.8749 11.584C54.1815 11.9573 53.4135 12.144 52.5709 12.144ZM52.5709 10.56C53.0402 10.56 53.4775 10.448 53.8829 10.224C54.2989 10 54.6349 9.664 54.8909 9.216C55.1469 8.768 55.2749 8.224 55.2749 7.584C55.2749 6.944 55.1522 6.40533 54.9069 5.968C54.6615 5.52 54.3362 5.184 53.9309 4.96C53.5255 4.736 53.0882 4.624 52.6189 4.624C52.1495 4.624 51.7122 4.736 51.3069 4.96C50.9122 5.184 50.5975 5.52 50.3629 5.968C50.1282 6.40533 50.0109 6.944 50.0109 7.584C50.0109 8.53333 50.2509 9.26933 50.7309 9.792C51.2215 10.304 51.8349 10.56 52.5709 10.56ZM70.79 3.184L68.054 12H66.134L64.358 5.488L62.582 12H60.662L57.91 3.184H59.766L61.606 10.272L63.478 3.184H65.382L67.174 10.24L68.998 3.184H70.79ZM76.6011 3.04C77.2945 3.04 77.9131 3.184 78.4571 3.472C79.0118 3.76 79.4438 4.18667 79.7531 4.752C80.0625 5.31733 80.2171 6 80.2171 6.8V12H78.4091V7.072C78.4091 6.28267 78.2118 5.68 77.8171 5.264C77.4225 4.83733 76.8838 4.624 76.2011 4.624C75.5185 4.624 74.9745 4.83733 74.5691 5.264C74.1745 5.68 73.9771 6.28267 73.9771 7.072V12H72.1531V3.184H73.9771V4.192C74.2758 3.82933 74.6545 3.54667 75.1131 3.344C75.5825 3.14133 76.0785 3.04 76.6011 3.04ZM84.3678 0.16V12H82.5438V0.16H84.3678ZM90.5865 12.144C89.7545 12.144 89.0025 11.9573 88.3305 11.584C87.6585 11.2 87.1305 10.6667 86.7465 9.984C86.3625 9.29067 86.1705 8.49067 86.1705 7.584C86.1705 6.688 86.3678 5.89333 86.7625 5.2C87.1572 4.50667 87.6958 3.97333 88.3785 3.6C89.0612 3.22667 89.8238 3.04 90.6665 3.04C91.5092 3.04 92.2718 3.22667 92.9545 3.6C93.6372 3.97333 94.1758 4.50667 94.5705 5.2C94.9652 5.89333 95.1625 6.688 95.1625 7.584C95.1625 8.48 94.9598 9.27467 94.5545 9.968C94.1492 10.6613 93.5945 11.2 92.8905 11.584C92.1972 11.9573 91.4292 12.144 90.5865 12.144ZM90.5865 10.56C91.0558 10.56 91.4932 10.448 91.8985 10.224C92.3145 10 92.6505 9.664 92.9065 9.216C93.1625 8.768 93.2905 8.224 93.2905 7.584C93.2905 6.944 93.1678 6.40533 92.9225 5.968C92.6772 5.52 92.3518 5.184 91.9465 4.96C91.5412 4.736 91.1038 4.624 90.6345 4.624C90.1652 4.624 89.7278 4.736 89.3225 4.96C88.9278 5.184 88.6132 5.52 88.3785 5.968C88.1438 6.40533 88.0265 6.944 88.0265 7.584C88.0265 8.53333 88.2665 9.26933 88.7465 9.792C89.2372 10.304 89.8505 10.56 90.5865 10.56ZM96.3576 7.552C96.3576 6.66667 96.539 5.88267 96.9016 5.2C97.275 4.51733 97.7763 3.98933 98.4056 3.616C99.0456 3.232 99.7496 3.04 100.518 3.04C101.211 3.04 101.814 3.17867 102.326 3.456C102.848 3.72267 103.264 4.05867 103.574 4.464V3.184H105.414V12H103.574V10.688C103.264 11.104 102.843 11.4507 102.31 11.728C101.776 12.0053 101.168 12.144 100.486 12.144C99.7283 12.144 99.035 11.952 98.4056 11.568C97.7763 11.1733 97.275 10.6293 96.9016 9.936C96.539 9.232 96.3576 8.43733 96.3576 7.552ZM103.574 7.584C103.574 6.976 103.446 6.448 103.19 6C102.944 5.552 102.619 5.21067 102.214 4.976C101.808 4.74133 101.371 4.624 100.902 4.624C100.432 4.624 99.995 4.74133 99.5896 4.976C99.1843 5.2 98.8536 5.536 98.5976 5.984C98.3523 6.42133 98.2296 6.944 98.2296 7.552C98.2296 8.16 98.3523 8.69333 98.5976 9.152C98.8536 9.61067 99.1843 9.96267 99.5896 10.208C100.006 10.4427 100.443 10.56 100.902 10.56C101.371 10.56 101.808 10.4427 102.214 10.208C102.619 9.97333 102.944 9.632 103.19 9.184C103.446 8.72533 103.574 8.192 103.574 7.584ZM107.201 7.552C107.201 6.66667 107.383 5.88267 107.745 5.2C108.119 4.51733 108.62 3.98933 109.249 3.616C109.889 3.232 110.599 3.04 111.377 3.04C111.953 3.04 112.519 3.168 113.073 3.424C113.639 3.66933 114.087 4 114.417 4.416V0.16H116.257V12H114.417V10.672C114.119 11.0987 113.703 11.4507 113.169 11.728C112.647 12.0053 112.044 12.144 111.361 12.144C110.593 12.144 109.889 11.952 109.249 11.568C108.62 11.1733 108.119 10.6293 107.745 9.936C107.383 9.232 107.201 8.43733 107.201 7.552ZM114.417 7.584C114.417 6.976 114.289 6.448 114.033 6C113.788 5.552 113.463 5.21067 113.057 4.976C112.652 4.74133 112.215 4.624 111.745 4.624C111.276 4.624 110.839 4.74133 110.433 4.976C110.028 5.2 109.697 5.536 109.441 5.984C109.196 6.42133 109.073 6.944 109.073 7.552C109.073 8.16 109.196 8.69333 109.441 9.152C109.697 9.61067 110.028 9.96267 110.433 10.208C110.849 10.4427 111.287 10.56 111.745 10.56C112.215 10.56 112.652 10.4427 113.057 10.208C113.463 9.97333 113.788 9.632 114.033 9.184C114.289 8.72533 114.417 8.192 114.417 7.584Z" fill="#0C2447"/>
</svg>
