<svg width="16" height="24" viewBox="0 0 16 24" fill="none" xmlns="http://www.w3.org/2000/svg">
<path d="M5.75414 16.3159L2.2186 12.7803C1.92571 12.4874 1.92571 12.0126 2.2186 11.7197L5.75414 8.18412C6.04703 7.89123 6.5219 7.89123 6.8148 8.18412C7.10769 8.47702 7.10769 8.95189 6.8148 9.24478L4.56 11.5005L13.25 11.5C13.6297 11.5 13.9435 11.7821 13.9932 12.1482L14 12.25C14 12.6642 13.6642 13 13.25 13L4.56 13.0005L6.8148 15.2552C7.10769 15.5481 7.10769 16.023 6.8148 16.3159C6.5219 16.6087 6.04703 16.6087 5.75414 16.3159Z" fill="#0C2447"/>
</svg>
