<svg width="16" height="16" viewBox="0 0 16 16" fill="none" xmlns="http://www.w3.org/2000/svg">
<mask id="path-1-inside-1_1_145" fill="white">
<path fill-rule="evenodd" clip-rule="evenodd" d="M4.45138 7.249L7.07938 9.877L12.7074 4.249C13.0394 3.917 13.5784 3.917 13.9104 4.249C14.0764 4.415 14.1594 4.632 14.1594 4.85C14.1594 5.067 14.0764 5.285 13.9104 5.451L7.68038 11.68C7.34838 12.012 6.81038 12.012 6.47838 11.68L3.24938 8.451C2.91638 8.118 2.91738 7.58 3.24938 7.249C3.58138 6.917 4.11938 6.917 4.45138 7.249Z"/>
</mask>
<path fill-rule="evenodd" clip-rule="evenodd" d="M4.45138 7.249L7.07938 9.877L12.7074 4.249C13.0394 3.917 13.5784 3.917 13.9104 4.249C14.0764 4.415 14.1594 4.632 14.1594 4.85C14.1594 5.067 14.0764 5.285 13.9104 5.451L7.68038 11.68C7.34838 12.012 6.81038 12.012 6.47838 11.68L3.24938 8.451C2.91638 8.118 2.91738 7.58 3.24938 7.249C3.58138 6.917 4.11938 6.917 4.45138 7.249Z" fill="#3983F2"/>
<path d="M7.07938 9.877L6.37227 10.5841L7.07938 11.2912L7.78648 10.5841L7.07938 9.877ZM4.45138 7.249L3.74427 7.95611L3.74427 7.95611L4.45138 7.249ZM12.7074 4.249L13.4145 4.95611V4.95611L12.7074 4.249ZM13.9104 4.249L13.2033 4.95611L13.2033 4.95611L13.9104 4.249ZM13.9104 5.451L14.6174 6.15816L14.6175 6.15811L13.9104 5.451ZM7.68038 11.68L6.97333 10.9728L6.97327 10.9729L7.68038 11.68ZM6.47838 11.68L7.18548 10.9729V10.9729L6.47838 11.68ZM3.24938 8.451L2.54227 9.15811H2.54227L3.24938 8.451ZM3.24938 7.249L3.95542 7.95717L3.95648 7.95611L3.24938 7.249ZM7.78648 9.16989L5.15848 6.54189L3.74427 7.95611L6.37227 10.5841L7.78648 9.16989ZM12.0003 3.54189L6.37227 9.16989L7.78648 10.5841L13.4145 4.95611L12.0003 3.54189ZM14.6175 3.54189C13.895 2.81937 12.7228 2.81937 12.0003 3.54189L13.4145 4.95611C13.356 5.01463 13.2618 5.01463 13.2033 4.95611L14.6175 3.54189ZM15.1594 4.85C15.1594 4.37718 14.9782 3.90266 14.6175 3.54189L13.2033 4.95611C13.1745 4.92734 13.1594 4.88681 13.1594 4.85H15.1594ZM14.6175 6.15811C14.9787 5.79691 15.1594 5.32119 15.1594 4.85H13.1594C13.1594 4.81281 13.1741 4.77308 13.2033 4.74389L14.6175 6.15811ZM8.38742 12.3872L14.6174 6.15816L13.2033 4.74384L6.97333 10.9728L8.38742 12.3872ZM5.77127 12.3871C6.49379 13.1096 7.66496 13.1096 8.38748 12.3871L6.97327 10.9729C7.03179 10.9144 7.12696 10.9144 7.18548 10.9729L5.77127 12.3871ZM2.54227 9.15811L5.77127 12.3871L7.18548 10.9729L3.95648 7.74389L2.54227 9.15811ZM2.54334 6.54083C1.81957 7.26242 1.81857 8.43441 2.54227 9.15811L3.95648 7.74389C4.01418 7.80159 4.01518 7.89758 3.95541 7.95717L2.54334 6.54083ZM5.15848 6.54189C4.43596 5.81937 3.26479 5.81937 2.54227 6.54189L3.95648 7.95611C3.89796 8.01463 3.80279 8.01463 3.74427 7.95611L5.15848 6.54189Z" fill="#979797" mask="url(#path-1-inside-1_1_145)"/>
<mask id="mask0_1_145" style="mask-type:alpha" maskUnits="userSpaceOnUse" x="3" y="4" width="12" height="8">
<mask id="path-3-inside-2_1_145" fill="white">
<path fill-rule="evenodd" clip-rule="evenodd" d="M4.45138 7.249L7.07938 9.877L12.7074 4.249C13.0394 3.917 13.5784 3.917 13.9104 4.249C14.0764 4.415 14.1594 4.632 14.1594 4.85C14.1594 5.067 14.0764 5.285 13.9104 5.451L7.68038 11.68C7.34838 12.012 6.81038 12.012 6.47838 11.68L3.24938 8.451C2.91638 8.118 2.91738 7.58 3.24938 7.249C3.58138 6.917 4.11938 6.917 4.45138 7.249Z"/>
</mask>
<path fill-rule="evenodd" clip-rule="evenodd" d="M4.45138 7.249L7.07938 9.877L12.7074 4.249C13.0394 3.917 13.5784 3.917 13.9104 4.249C14.0764 4.415 14.1594 4.632 14.1594 4.85C14.1594 5.067 14.0764 5.285 13.9104 5.451L7.68038 11.68C7.34838 12.012 6.81038 12.012 6.47838 11.68L3.24938 8.451C2.91638 8.118 2.91738 7.58 3.24938 7.249C3.58138 6.917 4.11938 6.917 4.45138 7.249Z" fill="white"/>
<path d="M7.07938 9.877L6.37227 10.5841L7.07938 11.2912L7.78648 10.5841L7.07938 9.877ZM4.45138 7.249L3.74427 7.95611L3.74427 7.95611L4.45138 7.249ZM12.7074 4.249L13.4145 4.95611V4.95611L12.7074 4.249ZM13.9104 4.249L13.2033 4.95611L13.2033 4.95611L13.9104 4.249ZM13.9104 5.451L14.6174 6.15816L14.6175 6.15811L13.9104 5.451ZM7.68038 11.68L6.97333 10.9728L6.97327 10.9729L7.68038 11.68ZM6.47838 11.68L7.18548 10.9729V10.9729L6.47838 11.68ZM3.24938 8.451L2.54227 9.15811H2.54227L3.24938 8.451ZM3.24938 7.249L3.95542 7.95717L3.95648 7.95611L3.24938 7.249ZM7.78648 9.16989L5.15848 6.54189L3.74427 7.95611L6.37227 10.5841L7.78648 9.16989ZM12.0003 3.54189L6.37227 9.16989L7.78648 10.5841L13.4145 4.95611L12.0003 3.54189ZM14.6175 3.54189C13.895 2.81937 12.7228 2.81937 12.0003 3.54189L13.4145 4.95611C13.356 5.01463 13.2618 5.01463 13.2033 4.95611L14.6175 3.54189ZM15.1594 4.85C15.1594 4.37718 14.9782 3.90266 14.6175 3.54189L13.2033 4.95611C13.1745 4.92734 13.1594 4.88681 13.1594 4.85H15.1594ZM14.6175 6.15811C14.9787 5.79691 15.1594 5.32119 15.1594 4.85H13.1594C13.1594 4.81281 13.1741 4.77308 13.2033 4.74389L14.6175 6.15811ZM8.38742 12.3872L14.6174 6.15816L13.2033 4.74384L6.97333 10.9728L8.38742 12.3872ZM5.77127 12.3871C6.49379 13.1096 7.66496 13.1096 8.38748 12.3871L6.97327 10.9729C7.03179 10.9144 7.12696 10.9144 7.18548 10.9729L5.77127 12.3871ZM2.54227 9.15811L5.77127 12.3871L7.18548 10.9729L3.95648 7.74389L2.54227 9.15811ZM2.54334 6.54083C1.81957 7.26242 1.81857 8.43441 2.54227 9.15811L3.95648 7.74389C4.01418 7.80159 4.01518 7.89758 3.95541 7.95717L2.54334 6.54083ZM5.15848 6.54189C4.43596 5.81937 3.26479 5.81937 2.54227 6.54189L3.95648 7.95611C3.89796 8.01463 3.80279 8.01463 3.74427 7.95611L5.15848 6.54189Z" fill="white" mask="url(#path-3-inside-2_1_145)"/>
</mask>
<g mask="url(#mask0_1_145)">
<rect width="16" height="16" fill="#3983F2"/>
</g>
</svg>
