<svg width="161" height="28" viewBox="0 0 161 28" fill="none" xmlns="http://www.w3.org/2000/svg">
<path d="M11.5085 0.88983V8.2161C10.5297 7.08898 9.07627 6.40678 7.08898 6.40678C3.20339 6.40678 0 9.8178 0 14.2373C0 18.6568 3.20339 22.0678 7.08898 22.0678C9.07627 22.0678 10.5297 21.3856 11.5085 20.2585V21.6525H15.9576V0.88983H11.5085ZM7.97881 17.8559C5.9322 17.8559 4.44915 16.4619 4.44915 14.2373C4.44915 12.0127 5.9322 10.6186 7.97881 10.6186C10.0254 10.6186 11.5085 12.0127 11.5085 14.2373C11.5085 16.4619 10.0254 17.8559 7.97881 17.8559Z" fill="#1D1D1D"/>
<path d="M22.6327 5.51695C24.0861 5.51695 25.3022 4.30085 25.3022 2.84746C25.3022 1.39407 24.0861 0.177966 22.6327 0.177966C21.1794 0.177966 19.9633 1.39407 19.9633 2.84746C19.9633 4.30085 21.1794 5.51695 22.6327 5.51695ZM20.4082 21.6525H24.8573V6.82203H20.4082V21.6525Z" fill="#1D1D1D"/>
<path d="M40.1851 6.82203V8.33475C39.2063 7.11864 37.7826 6.40678 35.8546 6.40678C31.6427 6.40678 28.558 9.84746 28.558 13.9407C28.558 18.0339 31.6427 21.4746 35.8546 21.4746C37.7826 21.4746 39.2063 20.7627 40.1851 19.5466V20.911C40.1851 23.017 38.9097 24.0847 36.8334 24.0847C34.8758 24.0847 34.0156 23.2542 33.4521 22.2161L29.6555 24.411C31.0199 26.8432 33.6004 28 36.6851 28C40.63 28 44.5156 25.8941 44.5156 20.911V6.82203H40.1851ZM36.5961 17.3814C34.4902 17.3814 33.0072 15.9873 33.0072 13.9407C33.0072 11.8941 34.4902 10.5 36.5961 10.5C38.7021 10.5 40.1851 11.8941 40.1851 13.9407C40.1851 15.9873 38.7021 17.3814 36.5961 17.3814Z" fill="#1D1D1D"/>
<path d="M51.1907 5.51695C52.6441 5.51695 53.8602 4.30085 53.8602 2.84746C53.8602 1.39407 52.6441 0.177966 51.1907 0.177966C49.7374 0.177966 48.5213 1.39407 48.5213 2.84746C48.5213 4.30085 49.7374 5.51695 51.1907 5.51695ZM48.9662 21.6525H53.4153V6.82203H48.9662V21.6525Z" fill="#1D1D1D"/>
<path d="M66.5482 11.0932V6.82203H63.4931V2.66949L59.044 4.00424V6.82203H56.6711V11.0932H59.044V16.3432C59.044 20.4958 60.7346 22.2458 66.5482 21.6525V17.6186C64.5906 17.7373 63.4931 17.6186 63.4931 16.3432V11.0932H66.5482Z" fill="#1D1D1D"/>
<path d="M80.731 6.82203V8.2161C79.7522 7.08898 78.2988 6.40678 76.3115 6.40678C72.4259 6.40678 69.2226 9.8178 69.2226 14.2373C69.2226 18.6568 72.4259 22.0678 76.3115 22.0678C78.2988 22.0678 79.7522 21.3856 80.731 20.2585V21.6525H85.1802V6.82203H80.731ZM77.2014 17.8559C75.1548 17.8559 73.6717 16.4619 73.6717 14.2373C73.6717 12.0127 75.1548 10.6186 77.2014 10.6186C79.248 10.6186 80.731 12.0127 80.731 14.2373C80.731 16.4619 79.248 17.8559 77.2014 17.8559Z" fill="#1D1D1D"/>
<path d="M89.6307 21.6525H94.0799V0H89.6307V21.6525Z" fill="#1D1D1D"/>
<path d="M107.391 6.40678C105.403 6.40678 103.95 7.08898 102.971 8.2161V0.88983H98.5221V21.6525H102.971V20.2585C103.95 21.3856 105.403 22.0678 107.391 22.0678C111.276 22.0678 114.48 18.6568 114.48 14.2373C114.48 9.8178 111.276 6.40678 107.391 6.40678ZM106.501 17.8559C104.454 17.8559 102.971 16.4619 102.971 14.2373C102.971 12.0127 104.454 10.6186 106.501 10.6186C108.548 10.6186 110.031 12.0127 110.031 14.2373C110.031 16.4619 108.548 17.8559 106.501 17.8559Z" fill="#1D1D1D"/>
<path d="M127.057 6.40678C125.07 6.40678 123.617 7.08898 122.638 8.2161V6.82203H118.189V27.5847H122.638V20.2585C123.617 21.3856 125.07 22.0678 127.057 22.0678C130.943 22.0678 134.146 18.6568 134.146 14.2373C134.146 9.8178 130.943 6.40678 127.057 6.40678ZM126.168 17.8559C124.121 17.8559 122.638 16.4619 122.638 14.2373C122.638 12.0127 124.121 10.6186 126.168 10.6186C128.214 10.6186 129.697 12.0127 129.697 14.2373C129.697 16.4619 128.214 17.8559 126.168 17.8559Z" fill="#1D1D1D"/>
<path d="M154.466 6.40678C152.36 6.40678 150.995 7.17797 150.165 8.36441C149.334 7.11864 148.029 6.40678 146.279 6.40678C144.292 6.40678 142.987 7.17797 142.305 8.18644V6.82203H137.855V21.6525H142.305V13.2881C142.305 11.5381 143.135 10.5 144.618 10.5C146.042 10.5 146.754 11.4492 146.754 12.9322V21.6525H151.203V13.2881C151.203 11.5381 152.033 10.5 153.516 10.5C154.94 10.5 155.652 11.4492 155.652 12.9322V21.6525H160.101V12.5466C160.101 8.83898 157.877 6.40678 154.466 6.40678Z" fill="#1D1D1D"/>
</svg>
