<svg width="17" height="20" viewBox="0 0 17 20" fill="none" xmlns="http://www.w3.org/2000/svg">
<path d="M8.50002 6.74268L9.62018 9.5H7.37985L8.50002 6.74268Z" fill="#212121"/>
<path fill-rule="evenodd" clip-rule="evenodd" d="M0 2.5C0 1.11929 1.11929 0 2.5 0H14C15.3807 0 16.5 1.11929 16.5 2.5V16.75C16.5 17.1642 16.1642 17.5 15.75 17.5H1.5C1.5 18.0523 1.94772 18.5 2.5 18.5H15.75C16.1642 18.5 16.5 18.8358 16.5 19.25C16.5 19.6642 16.1642 20 15.75 20H2.5C1.11929 20 0 18.8807 0 17.5V2.5ZM8.50002 4C8.80522 4 9.07999 4.18495 9.19487 4.46772L12.4449 12.4677C12.6008 12.8515 12.4161 13.2889 12.0323 13.4448C11.6485 13.6007 11.2111 13.416 11.0552 13.0323L10.2296 11H6.77048L5.94486 13.0323C5.78896 13.416 5.35149 13.6007 4.96773 13.4448C4.58398 13.2889 4.39926 12.8515 4.55517 12.4677L7.80516 4.46772C7.92004 4.18495 8.19481 4 8.50002 4Z" fill="#212121"/>
</svg>
