<svg width="16" height="16" viewBox="0 0 16 16" fill="none" xmlns="http://www.w3.org/2000/svg">
<path d="M3.5 11.75L2 12.5L1.75 11.5L2.75 9L4 7.25L6.25 6L8.5 5.5L8.75 4.75L9 2.5L14.25 7.75L9.75 12.25L9 13L8.75 11.25V9.75L7 10L5 10.75L3.5 11.75Z" fill="#6F809A"/>
<path fill-rule="evenodd" clip-rule="evenodd" d="M9.1701 5.76497L8.25082 5.86044C6.49454 6.067 5.13625 6.7413 4.13244 7.83878C3.18299 8.87682 2.50387 10.3451 2.15078 12.2853C3.8259 10.4306 5.82354 9.47305 8.15491 9.48039L8.16106 9.48041L9.1701 9.50013V12.3952L13.8848 7.66485L9.1701 2.93615V5.76497ZM9.1701 2.65355C9.1701 2.6534 9.1701 2.6537 9.1701 2.65355V2.65355ZM9.47782 2.18254L9.40947 2.12241C9.31602 2.05236 9.2059 2.01062 9.09123 2.00177C8.97656 1.99293 8.86177 2.01732 8.7595 2.07227C8.65723 2.12722 8.57143 2.2106 8.51156 2.31323C8.45168 2.41586 8.42003 2.53377 8.4201 2.65399V5.08883L8.16839 5.11497C4.34261 5.5629 2.03131 8.09446 1.342 12.5737C1.24281 13.2221 2.01714 13.602 2.43056 13.107C3.92505 11.316 5.66074 10.3682 7.6701 10.2443C7.72848 10.2407 7.78709 10.2378 7.84594 10.2356C7.94745 10.2318 8.04965 10.2301 8.15255 10.2304L8.4201 10.2356V12.6774L8.42594 12.7707C8.44231 12.8897 8.48976 13.0016 8.56306 13.0942C8.63636 13.1869 8.73267 13.2566 8.8414 13.2957C8.95013 13.3347 9.06707 13.3417 9.17935 13.3158C9.29163 13.2899 9.39491 13.2322 9.47782 13.1489L14.4738 8.13629L14.538 8.06222C14.7289 7.8034 14.7072 7.42693 14.4738 7.19338L9.47782 2.18254Z" fill="#6F809A"/>
</svg>
