<svg width="16" height="16" viewBox="0 0 16 16" fill="none" xmlns="http://www.w3.org/2000/svg">
<path d="M3.5 13H12.5C12.69 13.0001 12.8729 13.0722 13.0118 13.202C13.1506 13.3317 13.2351 13.5093 13.248 13.6989C13.261 13.8885 13.2015 14.0759 13.0816 14.2233C12.9617 14.3707 12.7902 14.4671 12.602 14.493L12.5 14.5H3.5C3.30998 14.4999 3.12706 14.4278 2.98821 14.298C2.84936 14.1683 2.76493 13.9907 2.75197 13.8011C2.73902 13.6115 2.79852 13.4241 2.91843 13.2767C3.03835 13.1293 3.20975 13.0329 3.398 13.007L3.5 13H12.5H3.5ZM7.898 1.007L8 1C8.18124 1.00001 8.35634 1.06564 8.49293 1.18477C8.62952 1.30389 8.71835 1.46845 8.743 1.648L8.75 1.75V9.438L11.005 7.184C11.1322 7.05687 11.3008 6.97966 11.4801 6.96645C11.6595 6.95323 11.8376 7.00489 11.982 7.112L12.066 7.184C12.1931 7.31117 12.2703 7.47979 12.2836 7.65912C12.2968 7.83845 12.2451 8.01657 12.138 8.161L12.066 8.245L8.53 11.78C8.40301 11.907 8.23466 11.9842 8.05555 11.9976C7.87644 12.011 7.69847 11.9597 7.554 11.853L7.47 11.78L3.934 8.245C3.79981 8.11118 3.72125 7.93151 3.71413 7.74213C3.70701 7.55274 3.77185 7.36768 3.89561 7.22416C4.01938 7.08063 4.19289 6.98928 4.38126 6.96848C4.56963 6.94767 4.7589 6.99895 4.911 7.112L4.995 7.184L7.25 9.44V1.75C7.25001 1.56876 7.31564 1.39366 7.43477 1.25707C7.55389 1.12048 7.71845 1.03165 7.898 1.007L8 1L7.898 1.007Z" fill="#6F809A"/>
</svg>
