<svg width="76" height="76" viewBox="0 0 76 76" fill="none" xmlns="http://www.w3.org/2000/svg">
<mask id="mask0_1_61" style="mask-type:alpha" maskUnits="userSpaceOnUse" x="0" y="0" width="76" height="76">
<rect width="76" height="76" rx="6" fill="#E4E8EC"/>
</mask>
<g mask="url(#mask0_1_61)">
<path fill-rule="evenodd" clip-rule="evenodd" d="M35.8876 10.2472C32.5739 10.2472 29.8876 12.9335 29.8876 16.2472V30.7416H15.3933C12.0796 30.7416 9.39326 33.4279 9.39326 36.7416V59.7528C9.39326 63.0665 12.0796 65.7528 15.3933 65.7528H40.1124C43.4261 65.7528 46.1124 63.0665 46.1124 59.7528V45.2584H60.6068C63.9205 45.2584 66.6068 42.5721 66.6068 39.2584V16.2472C66.6068 12.9335 63.9205 10.2472 60.6068 10.2472H35.8876ZM46.1124 45.2584V36.7416C46.1124 33.4279 43.4261 30.7416 40.1124 30.7416H29.8876V39.2584C29.8876 42.5721 32.5739 45.2584 35.8876 45.2584H46.1124Z" fill="#3983F2"/>
</g>
</svg>
