<svg width="167" height="40" viewBox="0 0 167 40" fill="none" xmlns="http://www.w3.org/2000/svg">
<path fill-rule="evenodd" clip-rule="evenodd" d="M158.363 31.1818C156.935 31.1933 155.552 30.995 154.213 30.5867C152.891 30.1593 151.828 29.6061 151.024 28.9269L152.463 25.43C153.233 26.0523 154.15 26.5496 155.214 26.922C156.278 27.2943 157.344 27.4762 158.41 27.4676C159.597 27.458 160.475 27.2605 161.045 26.875C161.615 26.4704 161.901 25.9444 161.905 25.2968C161.908 24.8207 161.738 24.4316 161.396 24.1296C161.071 23.8085 160.642 23.5548 160.11 23.3686C159.596 23.1823 158.892 22.9785 157.999 22.7571C156.625 22.4063 155.5 22.0535 154.625 21.6987C153.75 21.3439 152.997 20.7691 152.365 19.9743C151.75 19.1793 151.447 18.1152 151.455 16.782C151.461 15.6201 151.751 14.5703 152.324 13.6325C152.897 12.6756 153.753 11.9164 154.891 11.3549C156.047 10.7933 157.45 10.5058 159.101 10.4925C160.253 10.4832 161.379 10.6265 162.478 10.9224C163.577 11.2183 164.538 11.6486 165.36 12.2133L164.05 15.7378C162.388 14.7037 160.722 14.1933 159.054 14.2068C157.884 14.2162 157.015 14.4327 156.445 14.8563C155.892 15.2797 155.614 15.8343 155.61 16.52C155.606 17.2056 155.921 17.7173 156.555 18.055C157.207 18.3735 158.194 18.6894 159.516 19.0025C160.89 19.3533 162.015 19.7061 162.89 20.0609C163.765 20.4157 164.51 20.9811 165.124 21.757C165.756 22.5328 166.068 23.5873 166.061 24.9205C166.054 26.0633 165.756 27.1132 165.165 28.0702C164.592 29.0081 163.728 29.7578 162.573 30.3194C161.417 30.8811 160.014 31.1685 158.363 31.1818ZM134.098 29.0061C135.533 30.5753 137.541 31.3495 140.121 31.3288C142.701 31.308 144.709 30.5014 146.146 28.9091C147.6 27.3166 148.335 25.0538 148.352 22.1206L148.416 10.9214L144.289 10.9547L144.225 21.9825C144.214 23.83 143.863 25.1946 143.17 26.0762C142.477 26.9389 141.477 27.3754 140.17 27.386C137.487 27.4076 136.155 25.628 136.176 22.0473L136.24 11.0195L132.06 11.0532L131.996 22.2524C131.979 25.1855 132.679 27.4368 134.098 29.0061ZM124.643 26.8254L116.259 26.8929L114.635 31.1912L110.352 31.2257L118.517 11.1622L122.644 11.129L130.604 31.0626L126.218 31.0979L124.643 26.8254ZM123.348 23.3219L120.529 15.6884L117.621 23.3681L123.348 23.3219ZM108.568 11.2424L108.453 31.241L104.274 31.2747L104.321 23.0752L96.117 23.1413L96.0698 31.3408L91.8904 31.3744L91.9106 27.8768L98.1797 19.2109L104.344 19.1612L104.389 11.276L108.568 11.2424ZM95.8527 10.8792L95.8414 7.1198L91.662 7.19848L91.6858 15.0827L83.4817 15.2372L83.4579 7.35294L79.2785 7.43162L79.3389 27.4279L83.5183 27.3492L83.4935 19.1507L89.9569 19.0291L95.8527 10.8792ZM64.6663 27.4184C66.0091 27.8122 67.3943 27.9956 68.8219 27.9687C70.473 27.9376 71.8739 27.6351 73.0246 27.0611C74.1752 26.4871 75.033 25.7282 75.5977 24.7844C76.1796 23.8212 76.4688 22.7682 76.4654 21.6256C76.4614 20.2925 76.14 19.2416 75.5013 18.4727C74.8797 17.7036 74.1299 17.1464 73.2516 16.801C72.3733 16.4557 71.2457 16.1151 69.8687 15.7791C68.5434 15.4803 67.5534 15.1752 66.8989 14.8638C66.2615 14.5329 65.9417 14.0247 65.9397 13.3392C65.9376 12.6536 66.2111 12.0961 66.7602 11.6668C67.3265 11.2371 68.1945 11.0113 69.364 10.9893C71.0323 10.9579 72.7022 11.4502 74.3737 12.4662L75.6531 8.92826C74.8258 8.37248 73.8613 7.9526 72.7596 7.66862C71.658 7.38463 70.531 7.25349 69.3786 7.27519C67.7275 7.30627 66.3266 7.6088 65.1759 8.18277C64.0424 8.75642 63.1933 9.52469 62.6286 10.4876C62.0639 11.4314 61.7833 12.4842 61.7868 13.6459C61.7908 14.979 62.1036 16.0396 62.7252 16.8278C63.364 17.6157 64.1225 18.1823 65.0007 18.5276C65.879 18.8729 67.0066 19.2135 68.3836 19.5495C69.2787 19.7612 69.9845 19.9574 70.501 20.1381C71.0348 20.3185 71.4655 20.5675 71.7933 20.8851C72.1382 21.1833 72.3114 21.5705 72.3128 22.0466C72.3148 22.6941 72.0326 23.2231 71.4662 23.6338C70.8998 24.0253 70.0232 24.2323 68.8364 24.2546C67.7701 24.2747 66.7032 24.1043 65.6357 23.7435C64.5682 23.3827 63.6465 22.8954 62.8706 22.2815L61.4622 25.7933C62.2726 26.4636 63.3407 27.0054 64.6663 27.4184ZM55.0152 23.6007L46.6306 23.7585L45.044 28.0735L40.7614 28.1542L48.7503 8.00635L52.8781 7.92864L61.0135 27.7729L56.6277 27.8555L55.0152 23.6007ZM53.6889 20.1118L50.8021 12.51L47.9615 20.2196L53.6889 20.1118ZM34.8668 16.2667L34.9289 28.264L38.8503 28.1901L38.7383 8.19484L35.3071 8.25944L28.6885 20.811L21.8917 8.512L18.4347 8.57708L18.495 28.5734L22.4164 28.4995L22.381 16.7589L27.6988 26.2861L29.5821 26.2506L34.8668 16.2667ZM3.82248 28.5639C5.16529 28.9576 6.55045 29.141 7.97799 29.1142C9.62911 29.0831 11.03 28.7806 12.1807 28.2066C13.3314 27.6326 14.1891 26.8737 14.7539 25.9299C15.3357 24.9666 15.625 23.9137 15.6215 22.7711C15.6175 21.438 15.2961 20.387 14.6574 19.6182C14.0359 18.8491 13.286 18.2918 12.4077 17.9465C11.5295 17.6012 10.4018 17.2605 9.02481 16.9246C7.69949 16.6258 6.70956 16.3207 6.05502 16.0092C5.41761 15.6784 5.09787 15.1702 5.0958 14.4846C5.09373 13.799 5.36726 13.2416 5.91637 12.8122C6.48267 12.3826 7.3506 12.1567 8.52015 12.1347C10.1885 12.1033 11.8584 12.5956 13.5299 13.6116L14.8092 10.0737C13.9819 9.51794 13.0174 9.09806 11.9158 8.81408C10.8141 8.5301 9.68709 8.39895 8.53474 8.42065C6.88362 8.45173 5.48271 8.75426 4.33203 9.32823C3.19855 9.90188 2.34946 10.6701 1.78476 11.633C1.22 12.5769 0.939379 13.6297 0.942885 14.7913C0.946909 16.1244 1.25971 17.1851 1.8813 17.9733C2.52008 18.7611 3.2786 19.3277 4.15685 19.673C5.0351 20.0184 6.16274 20.359 7.53977 20.6949C8.43482 20.9066 9.14062 21.1028 9.65717 21.2836C10.1909 21.464 10.6217 21.713 10.9494 22.0306C11.2943 22.3288 11.4675 22.716 11.469 23.1921C11.4709 23.8396 11.1887 24.3686 10.6223 24.7792C10.0559 25.1708 9.17932 25.3777 7.99258 25.4001C6.92623 25.4202 5.8593 25.2498 4.7918 24.889C3.7243 24.5282 2.80262 24.0408 2.02676 23.427L0.618343 26.9387C1.42877 27.6091 2.49682 28.1508 3.82248 28.5639Z" fill="#1D4164"/>
</svg>
