<svg width="20" height="20" viewBox="0 0 20 20" fill="none" xmlns="http://www.w3.org/2000/svg">
<path fill-rule="evenodd" clip-rule="evenodd" d="M18.2827 6.56887L2 15.9697V18.718C2 19.1638 2.04641 19.3254 2.13357 19.4884C2.22072 19.6513 2.34861 19.7792 2.51158 19.8664C2.67454 19.9535 2.83618 19.9999 3.28194 19.9999H7.71806C8.16382 19.9999 8.32546 19.9535 8.48842 19.8664C8.65139 19.7792 8.77928 19.6513 8.86643 19.4884C8.95359 19.3254 9 19.1638 9 18.718V14.2819C9 13.8361 9.04641 13.6745 9.13357 13.5115C9.22072 13.3485 9.34861 13.2207 9.51158 13.1335C9.67454 13.0463 9.83618 12.9999 10.2819 12.9999H11.7181C12.1638 12.9999 12.3255 13.0463 12.4884 13.1335C12.6514 13.2207 12.7793 13.3485 12.8664 13.5115C12.9536 13.6745 13 13.8361 13 14.2819V18.718C13 19.1638 13.0464 19.3254 13.1336 19.4884C13.2207 19.6513 13.3486 19.7792 13.5116 19.8664C13.6745 19.9535 13.8362 19.9999 14.2819 19.9999H18.7181C19.1638 19.9999 19.3255 19.9535 19.4884 19.8664C19.6514 19.7792 19.7793 19.6513 19.8664 19.4884C19.9536 19.3254 20 19.1638 20 18.718L19.9992 9.84834C19.9936 9.16085 19.9567 8.88941 19.879 8.59309C19.7942 8.26983 19.6609 7.98526 19.4668 7.71319C19.2728 7.44112 19.0704 7.22527 18.4278 6.68977L18.2827 6.56887ZM0 15.3092L16.3839 5.84994L9.84253 0.3988C9.535 0.142522 9.40077 0.0762732 9.24062 0.0326885C9.08048 -0.0108962 8.91952 -0.0108962 8.75938 0.0326885C8.59923 0.0762732 8.465 0.142522 8.15747 0.3988L1.5722 5.88652C1.0367 6.33278 0.806906 6.55705 0.632881 6.77685L0.533158 6.90994C0.339096 7.18201 0.205807 7.46659 0.121033 7.78985C0.0362589 8.1131 0 8.40675 0 9.24324V15.3092Z" fill="#0C2447"/>
</svg>
