<svg width="40" height="24" viewBox="0 0 40 24" fill="none" xmlns="http://www.w3.org/2000/svg">
<path opacity="0.3" d="M27.5631 23.9287C26.1984 24.0061 24.8353 23.9999 23.4706 23.9999C23.4612 23.9999 16.5553 23.9999 16.5553 23.9999C15.1639 23.9999 13.8008 24.0061 12.4369 23.9287C11.1969 23.859 9.98902 23.7103 8.78667 23.3782C6.25568 22.6799 4.04549 21.2213 2.44784 19.1535C0.859608 17.0988 8.23224e-07 14.5834 1.04901e-06 12.0007C1.27507e-06 9.41492 0.859609 6.90113 2.44784 4.84642C4.04549 2.77934 6.25569 1.31999 8.78667 0.621673C9.98902 0.289544 11.1969 0.141675 12.4369 0.0712237C13.8008 -0.00619354 15.1639 0.000772212 16.5286 0.000772332C16.538 0.000772332 23.4455 -1.44724e-06 23.4455 -1.44724e-06C24.8353 0.000773058 26.1984 -0.00619246 27.5631 0.071225C28.8024 0.141677 30.0102 0.289546 31.2126 0.621675C33.7435 1.31999 35.9537 2.77934 37.5514 4.84643C39.1396 6.90113 40 9.41492 40 11.9999C40 14.5834 39.1396 17.0988 37.5514 19.1535C35.9537 21.2213 33.7435 22.6799 31.2125 23.3782C30.0102 23.7103 28.8024 23.859 27.5631 23.9287Z" fill="#6F809A"/>
<path fill-rule="evenodd" clip-rule="evenodd" d="M12.1568 1.54805C6.30909 1.54805 1.56857 6.22737 1.56857 11.9996C1.56857 17.7718 6.30909 22.4512 12.1568 22.4512C18.0045 22.4512 22.745 17.7718 22.745 11.9996C22.745 6.22737 18.0045 1.54805 12.1568 1.54805Z" fill="#203A62"/>
</svg>
