<svg width="12" height="18" viewBox="0 0 12 18" fill="none" xmlns="http://www.w3.org/2000/svg">
<path d="M10.8515 2.31476L4.16627 9.00001L10.8515 15.6853C11.0234 15.8572 11.1199 16.0903 11.1199 16.3333C11.1199 16.5764 11.0234 16.8095 10.8515 16.9814L10.3144 17.5186C10.1425 17.6904 9.90934 17.787 9.66627 17.787C9.4232 17.787 9.19009 17.6904 9.01819 17.5186L1.14769 9.6481C0.975842 9.4762 0.879303 9.24308 0.879303 9.00001C0.879303 8.75695 0.975842 8.52383 1.14769 8.35193L9.01819 0.481431C9.19009 0.309582 9.4232 0.213043 9.66627 0.213043C9.90934 0.213043 10.1425 0.309582 10.3144 0.481431L10.8515 1.0186C11.0234 1.1905 11.1199 1.42361 11.1199 1.66668C11.1199 1.90975 11.0234 2.14286 10.8515 2.31476Z" fill="#2084E1"/>
</svg>
