<svg width="12" height="12" viewBox="0 0 12 12" fill="none" xmlns="http://www.w3.org/2000/svg">
<path d="M8.82982 0.765533C8.32947 0.76546 7.83649 0.88612 7.39273 1.11727C6.94898 1.34842 6.56755 1.68323 6.28082 2.09328C5.9941 1.68323 5.61267 1.34842 5.16892 1.11727C4.72516 0.88612 4.23218 0.76546 3.73183 0.765533C2.90557 0.765533 2.11314 1.09377 1.52888 1.67802C0.944627 2.26228 0.616394 3.0547 0.616394 3.88097C0.616394 7.12102 4.29827 9.7935 6.28082 11.1598C8.26338 9.7935 11.9453 7.12102 11.9453 3.88097C11.9453 3.47185 11.8647 3.06673 11.7081 2.68874C11.5515 2.31076 11.3221 1.96732 11.0328 1.67802C10.7435 1.38873 10.4 1.15925 10.022 1.00268C9.64406 0.846117 9.23894 0.765533 8.82982 0.765533Z" fill="#F3BA27"/>
</svg>
