<svg width="7" height="5" viewBox="0 0 7 5" fill="none" xmlns="http://www.w3.org/2000/svg">
<path d="M3.00058 4.5C2.87294 4.49936 2.74704 4.47031 2.63201 4.41496C2.51699 4.35961 2.41573 4.27935 2.33558 4.18L0.230584 1.63C0.107581 1.47648 0.0301769 1.2915 0.00719247 1.09613C-0.015792 0.900766 0.0165676 0.702871 0.100584 0.525C0.168724 0.370413 0.279921 0.238707 0.420894 0.145611C0.561867 0.0525159 0.726657 0.00196653 0.895584 0H5.10558C5.27451 0.00196653 5.4393 0.0525159 5.58028 0.145611C5.72125 0.238707 5.83244 0.370413 5.90058 0.525C5.9846 0.702871 6.01696 0.900766 5.99398 1.09613C5.97099 1.2915 5.89359 1.47648 5.77059 1.63L3.66558 4.18C3.58544 4.27935 3.48418 4.35961 3.36915 4.41496C3.25413 4.47031 3.12823 4.49936 3.00058 4.5Z" fill="#1C2431"/>
</svg>
