<svg width="8" height="21" viewBox="0 0 8 21" fill="none" xmlns="http://www.w3.org/2000/svg">
<path fill-rule="evenodd" clip-rule="evenodd" d="M1.49826 17.5026C1.49826 16.1213 2.61805 15.0015 3.99938 15.0015C5.38071 15.0015 6.5005 16.1213 6.5005 17.5026C6.5005 18.8839 5.38071 20.0037 3.99938 20.0037C2.61805 20.0037 1.49826 18.8839 1.49826 17.5026Z" fill="#E43131"/>
<path fill-rule="evenodd" clip-rule="evenodd" d="M0.123032 3.87781C0.123032 1.7375 1.85809 0.00244141 3.9984 0.00244141C6.13871 0.00244141 7.87377 1.7375 7.87377 3.87781C7.87377 6.71128 6.88381 10.4318 6.33833 12.2756C6.02876 13.322 5.06507 14.0039 3.99996 14.0039C2.93256 14.0039 1.96784 13.3191 1.65933 12.2708C1.11444 10.4193 0.123032 6.68157 0.123032 3.87781Z" fill="#E43131"/>
</svg>
