<svg width="20" height="20" viewBox="0 0 20 20" fill="none" xmlns="http://www.w3.org/2000/svg">
<path d="M13.25 0C13.6297 0 13.9435 0.282154 13.9932 0.648229L14 0.75L14.0005 3.07512C15.471 3.37384 16.6289 4.53302 16.9258 6.00416L19.25 6.00493C19.6642 6.00493 20 6.34071 20 6.75493C20 7.13462 19.7178 7.44842 19.3518 7.49808L19.25 7.50493L17 7.504V9.254L19.25 9.25493C19.6297 9.25493 19.9435 9.53708 19.9932 9.90316L20 10.0049C20 10.3846 19.7178 10.6984 19.3518 10.7481L19.25 10.7549L17 10.754V12.504L19.25 12.5049C19.6297 12.5049 19.9435 12.7871 19.9932 13.1532L20 13.2549C20 13.6346 19.7178 13.9484 19.3518 13.9981L19.25 14.0049L16.924 14.0048C16.6242 15.4717 15.468 16.6268 14.0005 16.9249L14 19.25C14 19.6642 13.6642 20 13.25 20C12.8703 20 12.5565 19.7178 12.5068 19.3518L12.5 19.25V16.999H10.749L10.75 19.25C10.75 19.6297 10.4678 19.9435 10.1018 19.9932L10 20C9.6203 20 9.30651 19.7178 9.25685 19.3518L9.25 19.25L9.249 16.999H7.5V19.25C7.5 19.6297 7.21785 19.9435 6.85177 19.9932L6.75 20C6.3703 20 6.05651 19.7178 6.00685 19.3518L6 19.25L6.00046 16.9251C4.53088 16.627 3.37329 15.4695 3.07501 14L0.75 14C0.335786 14 0 13.6642 0 13.25C0 12.8703 0.282154 12.5565 0.648229 12.5068L0.75 12.5L3 12.499V10.749L0.75 10.75C0.370304 10.75 0.0565091 10.4678 0.00684667 10.1018L0 10C0 9.6203 0.282154 9.30651 0.648229 9.25685L0.75 9.25L3 9.249V7.499L0.75 7.5C0.370304 7.5 0.0565091 7.21785 0.00684667 6.85177L0 6.75C0 6.3703 0.282154 6.05651 0.648229 6.00685L0.75 6L3.07521 5.99904C3.37381 4.53 4.53121 3.37297 6.00046 3.07492L6 0.75C6 0.335786 6.33579 0 6.75 0C7.1297 0 7.44349 0.282154 7.49315 0.648229L7.5 0.75V2.999H9.249L9.25 0.75C9.25 0.370304 9.53215 0.0565091 9.89823 0.00684667L10 0C10.3797 0 10.6935 0.282154 10.7432 0.648229L10.75 0.75L10.749 2.999H12.5V0.75C12.5 0.404822 12.7332 0.114107 13.0506 0.0267906L13.1482 0.00684667L13.25 0ZM10.0049 7.00493C8.34807 7.00493 7.00493 8.34807 7.00493 10.0049C7.00493 11.6618 8.34807 13.0049 10.0049 13.0049C11.6618 13.0049 13.0049 11.6618 13.0049 10.0049C13.0049 8.34807 11.6618 7.00493 10.0049 7.00493ZM10.0049 8.50493C10.8334 8.50493 11.5049 9.1765 11.5049 10.0049C11.5049 10.8334 10.8334 11.5049 10.0049 11.5049C9.1765 11.5049 8.50493 10.8334 8.50493 10.0049C8.50493 9.1765 9.1765 8.50493 10.0049 8.50493Z" fill="#212121"/>
</svg>
